<?xml version="1.0" encoding="iso-8859-1"?>
<!-- Generator: Adobe Illustrator 22.1.0, SVG Export Plug-In . SVG Version: 6.00 Build 0)  -->
<svg version="1.1" id="Layer_1" xmlns="http://www.w3.org/2000/svg" xmlns:xlink="http://www.w3.org/1999/xlink" x="0px" y="0px"
	 viewBox="0 0 512 512" style="enable-background:new 0 0 512 512;" xml:space="preserve">
<linearGradient id="SVGID_1_" gradientUnits="userSpaceOnUse" x1="6.608661e-08" y1="256" x2="512" y2="256">
	<stop  offset="0" style="stop-color:#663399"/>
	<stop  offset="1" style="stop-color:#51297F"/>
</linearGradient>
<circle style="fill:url(#SVGID_1_);" cx="256" cy="256" r="256"/>
<linearGradient id="SVGID_2_" gradientUnits="userSpaceOnUse" x1="41" y1="256" x2="471" y2="256">
	<stop  offset="0" style="stop-color:#60EBAE"/>
	<stop  offset="1" style="stop-color:#7DF9BD"/>
</linearGradient>
<path style="fill:url(#SVGID_2_);" d="M319.115,92.782l-9.792,21.216V47.669c9.694,2.474,19.118,5.616,28.235,9.357L319.115,92.782z
	 M170.875,195.056h14.688c15.232,0,23.12-7.072,23.12-20.672c0-13.872-7.888-20.944-22.304-20.944h-15.505V195.056z M202.7,96.862
	c0-12.784-5.44-19.312-17.953-19.312h-13.872v39.712h15.232C196.987,117.263,202.7,110.19,202.7,96.862z M471,256
	c0,84.003-48.182,156.742-118.411,192.12c0.329-1.708,0.512-3.504,0.512-5.393c0-13.994-9.328-23.322-23.321-23.322
	s-23.322,9.328-23.322,23.322c0,8.782,3.678,15.724,9.874,19.679C297.189,467.992,276.947,471,256,471
	c-15.975,0-31.536-1.757-46.518-5.062c-0.187-11.203-8.282-18.65-20.111-18.65h-2.447l2.72-9.521
	c31.553-3.808,49.776-25.296,49.776-53.584c0-60.657-75.616-62.561-75.616-92.481c0-8.704,5.983-14.145,16.048-14.145
	c11.152,0,16.864,6.257,16.864,18.769h39.712c0-35.088-21.216-56.033-56.305-56.033c-35.088,0-55.488,21.216-55.488,50.321
	c0,57.937,74.529,61.745,74.529,93.297c0,9.521-6.257,16.864-19.041,16.864c-12.239,0-19.855-6.528-19.855-21.76h-39.713
	c0,34.816,18.769,55.216,49.505,58.752l-3.697,13.7C92.38,417.484,41,342.747,41,256c0-72.669,36.057-136.91,91.251-175.827v151.331
	h60.112c32.641,0,56.033-22.848,56.033-56.849c0-17.136-8.433-32.368-22.576-40.528c10.063-9.248,16.048-24.48,16.048-38.896
	c0-23.906-11.432-42.013-29.24-49.853C226.637,42.508,241.142,41,256,41c5.126,0,10.207,0.192,15.243,0.545v189.959h38.08v-54.945
	l10.608-17.136l34.545,72.081h43.52L341.42,124.334l29.223-50.237C430.943,112.181,471,179.408,471,256z M391.35,298.752
	c0-36.07-25.188-58.459-60.326-58.459c-37.004,0-57.838,24.877-60.637,64.367h40.735c0.934-15.547,6.22-25.498,20.213-25.498
	c14.615,0,18.347,10.572,18.347,19.902c0,32.338-41.047,35.137-41.047,95.463v8.086h41.668v-9.018
	C350.303,351.616,391.35,344.153,391.35,298.752z"/>
<g>
</g>
<g>
</g>
<g>
</g>
<g>
</g>
<g>
</g>
<g>
</g>
</svg>
